<?xml version="1.0" encoding="UTF-8" standalone="no"?>
<svg
   xmlns:dc="http://purl.org/dc/elements/1.1/"
   xmlns:cc="http://creativecommons.org/ns#"
   xmlns:rdf="http://www.w3.org/1999/02/22-rdf-syntax-ns#"
   xmlns:svg="http://www.w3.org/2000/svg"
   xmlns="http://www.w3.org/2000/svg"
   xmlns:sodipodi="http://sodipodi.sourceforge.net/DTD/sodipodi-0.dtd"
   xmlns:inkscape="http://www.inkscape.org/namespaces/inkscape"
   viewBox="0 0 1915.4 1011.03"
   version="1.1"
   id="svg1216"
   sodipodi:docname="data.svg"
   inkscape:version="1.0.1 (c497b03c, 2020-09-10)">
  <metadata
     id="metadata1222">
    <rdf:RDF>
      <cc:Work
         rdf:about="">
        <dc:format>image/svg+xml</dc:format>
        <dc:type
           rdf:resource="http://purl.org/dc/dcmitype/StillImage" />
      </cc:Work>
    </rdf:RDF>
  </metadata>
  <defs
     id="defs1220" />
  <sodipodi:namedview
     pagecolor="#ffffff"
     bordercolor="#666666"
     borderopacity="1"
     objecttolerance="10"
     gridtolerance="10"
     guidetolerance="10"
     inkscape:pageopacity="0"
     inkscape:pageshadow="2"
     inkscape:window-width="1540"
     inkscape:window-height="899"
     id="namedview1218"
     showgrid="false"
     inkscape:zoom="0.37172392"
     inkscape:cx="1267.5642"
     inkscape:cy="354.12841"
     inkscape:window-x="0"
     inkscape:window-y="23"
     inkscape:window-maximized="0"
     inkscape:current-layer="svg1216" />
  <clipPath
     id="a"
     transform="translate(0 -17.62)">
    <path
       d="m372.9 110.3h1178.8v575.5h-1178.8z"
       id="path833" />
  </clipPath>
  <path
     d="m957.7 874.7c528.92 0 957.7 33.94 957.7 75.8s-530.24 112.56-957.7 58.7c-501.42-63.2-957.7-16.84-957.7-58.7s428.78-75.8 957.7-75.8z"
     fill="#f2f4f6"
     transform="translate(0 -17.62)"
     id="path836" />
  <ellipse
     cx="353.2"
     cy="923.98"
     fill="#231f20"
     opacity=".1"
     rx="132.4"
     ry="3.5"
     id="ellipse838" />
  <path
     d="m381.9 819.08h-103.6v52.3h103.6 103.7v-52.3z"
     fill="#5290e9"
     id="path840"
     style="fill:#5e9899;fill-opacity:1" />
  <path
     d="m359.6 870.38h-81.3v2h81.3 81.3v-2z"
     fill="#231f20"
     opacity=".2"
     id="path842" />
  <path
     d="m337.2 871.38h-103.6v52.3h103.6 103.7v-52.3z"
     fill="#5290e9"
     id="path844"
     style="fill:#72afb0;fill-opacity:1" />
  <path
     d="m359.6 17.62h1212a10 10 0 0 1 10 10l-.83 670.88a10 10 0 0 1 -10 10h-1212a10 10 0 0 1 -10-10l.83-670.88a10 10 0 0 1 10-10z"
     fill="#edeeef"
     transform="translate(0 -17.62)"
     id="path846" />
  <path
     d="m372.9 22.68h1178.8v56.1h-1178.8z"
     fill="#fff"
     id="path848" />
  <path
     d="m 372.8,92.78 h 322.5 v 178.5 H 372.8 Z"
     fill="#ffffff"
     id="path850" />
  <path
     d="m 532.7,172.78 h 3 v 61 h -3 z"
     fill="#4d4d4d"
     id="path852" />
  <path
     d="m 575.7,185.18 9.5,17.4 c 0.9,1.5 -0.2,4.2 -2,4.2 h -19.1 c -1.7,0 -2.8,-2.7 -2,-4.2 l 9.5,-17 c 1,-1.5 3.2,-1.9 4.1,-0.4 z"
     fill="#8fc899"
     id="path854" />
  <path
     d="m 711,92.78 h 322.5 v 178.5 H 711 Z"
     fill="#ffffff"
     id="path856" />
  <path
     d="m 870.7,172.78 h 3 v 61 h -3 z"
     fill="#4d4d4d"
     id="path858" />
  <path
     d="m 910.2,205.78 -9.5,-17.6 c -0.9,-1.5 0.2,-4.5 2,-4.5 h 19 c 1.7,0 2.8,3 2,4.5 l -9.5,17.1 c -1,1.5 -3.2,2 -4,0.5 z"
     fill="#e7616a"
     id="path860" />
  <path
     d="m 1049.7,92.78 h 242.5 v 233 h -242.5 z"
     fill="#ffffff"
     id="path862" />
  <path
     d="m 1309.9,92.78 h 242.5 v 233 h -242.5 z"
     fill="#ffffff"
     id="path864" />
  <path
     d="m 372.7,285.78 h 660 v 413 h -660 z"
     fill="#ffffff"
     id="path866" />
  <path
     d="m 384.6,383.58 h 636.5 v 34.5 H 384.6 Z"
     fill="#e2e2e2"
     id="path868" />
  <path
     d="m 384.6,383.58 h 344.9 v 34.5 H 384.6 Z"
     fill="#8fc899"
     id="path870"
     style="fill:#99fe58;fill-opacity:1" />
  <path
     d="m 729.5,368.28 h 14.1 v 49.8 h -14.1 z"
     fill="#4d4d4d"
     id="path872" />
  <path
     d="m 838.5,435.28 h 4.5 v 2.9 h -4.5 z"
     fill="#4d4d4d"
     id="path876" />
  <path
     d="m 843,429.78 h -4.5 v -5.4 h 4.5 z m 0,-10.8 h -4.5 v -5.4 h 4.5 z m 0,-10.9 h -4.5 v -5.4 h 4.5 z m 0,-10.8 h -4.5 v -5.4 h 4.5 z"
     fill="#4d4d4d"
     id="path878" />
  <path
     d="m 838.5,383.58 h 4.5 v 2.9 h -4.5 z"
     fill="#4d4d4d"
     id="path880" />
  <path
     d="m 384.6,499.58 h 636.5 v 34.5 H 384.6 Z"
     fill="#e2e2e2"
     id="path882" />
  <path
     d="m 384.6,499.58 h 178 v 34.5 h -178 z"
     fill="#e7616a"
     id="path884"
     style="fill:#787eb8;fill-opacity:1" />
  <path
     d="m 555.6,484.28 h 14.1 v 49.8 h -14.1 z"
     fill="#4d4d4d"
     id="path886" />
  <path
     d="m 656.2,551.18 h 4.5 v 2.9 h -4.5 z"
     fill="#4d4d4d"
     id="path890" />
  <path
     d="m 660.7,545.78 h -4.5 v -5.4 h 4.5 z m 0,-10.8 h -4.5 v -5.4 h 4.5 z m 0,-10.9 h -4.5 v -5.4 h 4.5 z m 0,-10.8 h -4.5 v -5.4 h 4.5 z"
     fill="#4d4d4d"
     id="path892" />
  <path
     d="m 656.2,499.58 h 4.5 v 2.9 h -4.5 z"
     fill="#4d4d4d"
     id="path894" />
  <path
     d="m 780.1,645.78 a 1.23,1.23 0 0 1 -1.1,-0.7 l -19.5,-35.2 a 1.28,1.28 0 0 0 -1.7,-0.5 c -0.1,0 -0.1,0.1 -0.2,0.1 l -20.6,17 a 1.24,1.24 0 0 1 -1.7,-0.1 l -0.1,-0.1 -0.1,-0.1 -19.7,-31.4 a 1.3,1.3 0 0 0 -1.8,-0.4 0.78,0.78 0 0 0 -0.4,0.4 l -19.8,31.7 a 1.3,1.3 0 0 1 -1.8,0.4 c -0.1,-0.1 -0.2,-0.1 -0.2,-0.2 l -18.8,-17.5 a 1.19,1.19 0 0 0 -1.8,0.1 l -0.1,0.1 -25.2,35.3 c -0.2,0.3 -0.6,0.8 -1,0.8 h -21 c -0.5,0 -1,-0.6 -1.2,-1.1 l -15.8,-35 a 1.29,1.29 0 0 0 -1.7,-0.6 0.35,0.35 0 0 0 -0.2,0.1 l -22.4,16.5 a 1.22,1.22 0 0 1 -1.6,-0.1 l -18.3,-16.5 a 1.22,1.22 0 0 0 -1.6,0 l -22.3,17.6 a 1.38,1.38 0 0 1 -1.8,-0.2 c 0,-0.1 -0.1,-0.1 -0.1,-0.2 l -16.8,-30.9 a 1.28,1.28 0 0 0 -1.7,-0.5 1.2,1.2 0 0 0 -0.5,0.5 c -3.7,6.7 -11.3,20.9 -15.6,33.8 -6.2,18.7 -28.1,16 -28.3,16 -0.2,0 -0.3,-0.1 -0.5,-0.2 -0.5,-0.3 -11.2,-7 -17.2,-13 -5.4,-5.4 -23.4,-32.2 -27.3,-38.5 a 1.15,1.15 0 0 0 -1.1,-0.6 h -17.9 a 1.3,1.3 0 0 0 -1.2,0.8 l -21.8,50.1 a 1.35,1.35 0 0 1 -1.6,0.7 1.25,1.25 0 0 1 -0.7,-1.7 v -0.1 l 22.3,-50.8 c 0.2,-0.5 0.7,-0.2 1.2,-0.2 h 21 c 0.4,0 0.8,-0.3 1.1,0 0.3,0.3 21.9,32.9 27.8,38.7 5.1,5.1 14.1,10.7 16.3,12 0.2,0.1 0.3,0.2 0.5,0.2 3.3,0.3 19.9,1 25,-14.4 6,-17.9 17.9,-38.1 18.1,-38.3 a 1.28,1.28 0 0 1 1.7,-0.5 1.2,1.2 0 0 1 0.5,0.5 l 17.5,32.2 a 1.28,1.28 0 0 0 1.7,0.5 c 0.1,0 0.1,-0.1 0.2,-0.1 l 21.6,-17.1 a 1.35,1.35 0 0 1 1.7,0 l 18.3,17 a 1.22,1.22 0 0 0 1.6,0.1 l 23.2,-17.3 a 1.39,1.39 0 0 1 1.1,-0.2 1.09,1.09 0 0 1 0.8,0.8 l 16.3,36.5 a 1.3,1.3 0 0 0 1.2,0.8 h 18 a 1.23,1.23 0 0 0 1,-0.5 l 26.2,-36.4 a 1.46,1.46 0 0 1 0.9,-0.6 1.69,1.69 0 0 1 1,0.3 l 18.7,17.3 a 1.27,1.27 0 0 0 1.8,-0.1 c 0.1,-0.1 0.1,-0.1 0.1,-0.2 l 20.3,-32.4 a 1.61,1.61 0 0 1 1.1,-0.5 1,1 0 0 1 1.1,0.5 l 20.4,32.3 a 1.3,1.3 0 0 0 1.8,0.4 l 0.1,-0.1 20.7,-17.2 a 1.43,1.43 0 0 1 1.1,-0.3 1.46,1.46 0 0 1 0.9,0.6 l 18.2,32.9 a 1.28,1.28 0 0 0 1.7,0.5 1.34,1.34 0 0 0 0.6,-0.7 l 19.1,-53.5 a 1.23,1.23 0 0 1 1.6,-0.8 1.06,1.06 0 0 1 0.7,0.6 l 19.4,38.7 a 1.2,1.2 0 0 0 1.7,0.5 c 0.1,-0.1 0.2,-0.1 0.3,-0.2 l 21.5,-21.5 a 1.28,1.28 0 0 1 1,-0.4 l 21,2 a 1.45,1.45 0 0 1 1,0.7 l 15.6,33.7 a 1.32,1.32 0 0 0 1.7,0.6 1.17,1.17 0 0 0 0.6,-0.6 l 23.7,-53.6 a 1.43,1.43 0 0 1 1.7,-0.7 c 0.1,0.1 0.3,0.1 0.4,0.3 l 41.5,39.5 a 1.27,1.27 0 0 0 1.8,0 c 0.1,-0.1 0.1,-0.2 0.2,-0.3 l 21.3,-38.9 a 1.28,1.28 0 0 1 1.7,-0.5 1.34,1.34 0 0 1 0.6,0.7 l 17.8,55.2 a 1.27,1.27 0 0 0 1.6,0.8 0.76,0.76 0 0 0 0.4,-0.2 l 20.2,-17.3 a 1.37,1.37 0 0 1 1.8,0.1 1.27,1.27 0 0 1 -0.1,1.8 l -22.9,19.8 a 1.27,1.27 0 0 1 -1.8,-0.1 c -0.1,-0.2 -0.2,-0.3 -0.3,-0.5 l -17.1,-53.2 a 1.23,1.23 0 0 0 -1.6,-0.8 1.06,1.06 0 0 0 -0.7,0.6 l -20.1,36.7 a 1.28,1.28 0 0 1 -1.7,0.5 c -0.1,-0.1 -0.2,-0.1 -0.3,-0.2 l -41.6,-39.2 a 1.27,1.27 0 0 0 -1.8,0.1 c -0.1,0.1 -0.1,0.2 -0.2,0.3 l -24.4,55.7 a 1.43,1.43 0 0 1 -1.7,0.7 2.34,2.34 0 0 1 -0.7,-0.7 l -17.2,-37.5 a 1.2,1.2 0 0 0 -1,-0.7 l -18.3,-1.8 a 1.28,1.28 0 0 0 -1,0.4 l -23.1,23 a 1.27,1.27 0 0 1 -1.8,0 c -0.1,-0.1 -0.2,-0.2 -0.2,-0.3 l -18.3,-36.5 a 1.32,1.32 0 0 0 -1.7,-0.6 1.06,1.06 0 0 0 -0.6,0.7 l -18.9,53.2 a 1.17,1.17 0 0 1 -1.1,0.8 z"
     fill="#69a0ef"
     id="path896" />
  <path
     d="m 384.7,644.48 23.4,-52.7 h 21 c 0,0 21.9,33.3 27.9,39.3 6,6 17,12.7 17,12.7 0,0 21,2.8 26.9,-15.1 5.9,-17.9 18,-38 18,-38 l 19,34.9 23.9,-19 20,18 24.9,-18.2 17,39.5 h 21 l 26.9,-38.9 21,19.3 21.9,-35.2 21.9,34.8 22.9,-19 21,37.9 21,-58.9 21,41.9 23.9,-23.9 21,2 18,38.9 25.9,-58.8 43.7,41.9 22.9,-41.9 18.5,58.8 23.5,-21 v 22.6 z"
     fill="#69a0ef"
     opacity="0.4"
     id="path898" />
  <path
     d="m 1020.2,620.28 a 3.5,3.5 0 1 1 -3.5,3.5 3.54,3.54 0 0 1 3.5,-3.5 z"
     fill="#69a0ef"
     id="path900" />
  <path
     d="m 1049.7,340.78 h 502 v 358 h -502 z"
     fill="#ffffff"
     id="path902" />
  <path
     d="m 1485.7,540.78 h 14 v 69 h -14 z"
     fill="#e7616a"
     id="path904" />
  <path
     d="m 1456.7,540.78 h 13 v 55 h -13 z"
     fill="#e7616a"
     id="path906" />
  <path
     d="m 1427.7,540.78 h 14 v 39 h -14 z"
     fill="#e7616a"
     id="path908" />
  <path
     d="m 1398.7,540.78 h 14 v 25 h -14 z"
     fill="#e7616a"
     id="path910" />
  <path
     d="m 1370.7,540.78 h 12 v 51 h -12 z"
     fill="#e7616a"
     id="path912" />
  <path
     d="m 1340.7,540.78 h 14 v 74 h -14 z"
     fill="#e7616a"
     id="path914" />
  <path
     d="m 1309.7,540.78 h 14 v 30 h -14 z"
     fill="#e7616a"
     id="path916" />
  <path
     d="m 1281.7,540.78 h 14 v 51 h -14 z"
     fill="#e7616a"
     id="path918" />
  <path
     d="m 1225.7,540.78 h 14 v 58 h -14 z"
     fill="#e7616a"
     id="path920" />
  <path
     d="m 1196.7,540.78 h 14 v 35 h -14 z"
     fill="#e7616a"
     id="path922" />
  <path
     d="m 1138.7,540.78 h 13 v 42 h -13 z"
     fill="#e7616a"
     id="path924" />
  <path
     d="m 1110.7,540.78 h 12 v 66 h -12 z"
     fill="#e7616a"
     id="path926" />
  <g
     fill="#69a0ef"
     id="g954">
    <path
       d="m 1110.7,478.78 h 12 v 70 h -12 z"
       id="path928" />
    <path
       d="m 1138.7,446.78 h 13 v 102 h -13 z"
       id="path930" />
    <path
       d="m 1167.7,491.78 h 13 v 57 h -13 z"
       id="path932" />
    <path
       d="m 1196.7,423.78 h 14 v 125 h -14 z"
       id="path934" />
    <path
       d="m 1225.7,447.78 h 14 v 101 h -14 z"
       id="path936" />
    <path
       d="m 1253.7,475.78 h 14 v 73 h -14 z"
       id="path938" />
    <path
       d="m 1281.7,439.78 h 14 v 109 h -14 z"
       id="path940" />
    <path
       d="m 1340.7,505.78 h 14 v 43 h -14 z"
       id="path942" />
    <path
       d="m 1370.7,473.78 h 12 v 75 h -12 z"
       id="path944" />
    <path
       d="m 1398.7,491.78 h 14 v 57 h -14 z"
       id="path946" />
    <path
       d="m 1427.7,443.78 h 14 v 105 h -14 z"
       id="path948" />
    <path
       d="m 1456.7,458.78 h 13 v 90 h -13 z"
       id="path950" />
    <path
       d="m 1485.7,447.78 h 14 v 101 h -14 z"
       id="path952" />
  </g>
  <path
     d="m 439.39,197.32 h 11.2 v -11.34 l 9.41,-1.6 v 13 h 5.39 l -1.26,8 H 460 v 9.24 h -9.38 v -9.24 h -21.87 v -7 L 447.3,166.6 h 10.29 z"
     fill="#545454"
     id="path956" />
  <path
     d="m 485,215.24 q -1.4,0 -3.22,-0.11 -1.82,-0.11 -3.75,-0.38 -1.93,-0.28 -3.85,-0.7 a 26,26 0 0 1 -3.6,-1 l 1.54,-8 a 41.38,41.38 0 0 0 6.27,1.36 43.7,43.7 0 0 0 6.05,0.46 q 4.76,0 6.76,-1.68 2,-1.68 2,-5.25 a 8.35,8.35 0 0 0 -0.66,-3.57 4.78,4.78 0 0 0 -1.93,-2.13 8.77,8.77 0 0 0 -3.15,-1 29.92,29.92 0 0 0 -4.34,-0.28 h -10.06 l 0.77,-26.39 h 27.37 l -1.12,8.26 H 483 l -0.28,9.8 h 4 a 27,27 0 0 1 7.77,1 13.16,13.16 0 0 1 5.21,2.84 10.81,10.81 0 0 1 2.91,4.58 19.68,19.68 0 0 1 0.91,6.23 v 1.1 a 16.16,16.16 0 0 1 -1.08,6 12.23,12.23 0 0 1 -3.36,4.73 15.69,15.69 0 0 1 -5.74,3.08 28,28 0 0 1 -8.34,1.05 z"
     fill="#545454"
     id="path958" />
  <path
     d="m 604.49,198.98 h 9.22 v -9.34 l 7.72,-1.33 v 10.67 h 4.44 l -1,6.57 h -3.4 v 7.61 h -7.72 v -7.61 h -18 v -5.76 L 611,173.63 h 8.47 z"
     fill="#545454"
     id="path960" />
  <path
     d="m 793.89,174.15 a 17.77,17.77 0 0 0 -4.83,0.59 8.23,8.23 0 0 0 -3.57,2 9.43,9.43 0 0 0 -2.28,3.85 20.67,20.67 0 0 0 -0.87,6.05 11.46,11.46 0 0 1 4.1,-2.55 19.45,19.45 0 0 1 12.5,0.17 10.83,10.83 0 0 1 4.3,3.15 12.67,12.67 0 0 1 2.38,4.87 25,25 0 0 1 0.73,6.26 v 0.84 a 22.58,22.58 0 0 1 -0.91,6.62 12.68,12.68 0 0 1 -2.94,5.11 13.29,13.29 0 0 1 -5.25,3.29 23.09,23.09 0 0 1 -7.77,1.16 21.16,21.16 0 0 1 -8.5,-1.47 13.11,13.11 0 0 1 -5.25,-4 14.72,14.72 0 0 1 -2.66,-5.92 34.2,34.2 0 0 1 -0.73,-7.25 v -7.28 a 38,38 0 0 1 1.37,-10.89 18.83,18.83 0 0 1 4,-7.38 15.78,15.78 0 0 1 6.44,-4.24 25.8,25.8 0 0 1 8.71,-1.36 33.13,33.13 0 0 1 6.09,0.52 39,39 0 0 1 5.11,1.29 l -2,7.77 a 27.77,27.77 0 0 0 -8.19,-1.26 z m -11.41,25 q 0,4.41 1.61,6.37 1.61,1.96 5.39,2 a 10.42,10.42 0 0 0 2.8,-0.35 4.86,4.86 0 0 0 2.17,-1.26 6,6 0 0 0 1.4,-2.38 12.22,12.22 0 0 0 0.49,-3.78 v -0.77 q 0,-4.2 -1.5,-6.16 -1.5,-1.96 -5.07,-2 a 10.56,10.56 0 0 0 -2.77,0.35 6.34,6.34 0 0 0 -2.31,1.16 5.56,5.56 0 0 0 -1.61,2.13 8.25,8.25 0 0 0 -0.6,3.36 z"
     fill="#545454"
     id="path962" />
  <path
     d="M 835.12,175.13 H 813 l 1.12,-8.61 h 31.64 v 6.93 l -15.33,41.09 h -10.71 z"
     fill="#545454"
     id="path964" />
  <path
     d="m 941,195.87 1.21,-6.63 H 949 a 6.92,6.92 0 0 0 2.59,-0.4 4.22,4.22 0 0 0 1.56,-1 3.31,3.31 0 0 0 0.78,-1.44 6.66,6.66 0 0 0 0.2,-1.61 4.65,4.65 0 0 0 -0.52,-2.31 3.94,3.94 0 0 0 -1.44,-1.47 6.59,6.59 0 0 0 -2.19,-0.78 15.62,15.62 0 0 0 -2.77,-0.23 27.71,27.71 0 0 0 -5.71,0.61 40.55,40.55 0 0 0 -5.3,1.47 l 1,-6.92 a 31.33,31.33 0 0 1 5.1,-1.47 30,30 0 0 1 6.14,-0.61 22.18,22.18 0 0 1 6.22,0.78 13,13 0 0 1 4.38,2.13 8.39,8.39 0 0 1 2.56,3.26 10.21,10.21 0 0 1 0.84,4.15 v 0.69 a 9,9 0 0 1 -1.27,4.9 9.28,9.28 0 0 1 -4.15,3.34 8.3,8.3 0 0 1 4.41,3.57 11.09,11.09 0 0 1 1.47,5.76 v 0.81 a 11.43,11.43 0 0 1 -0.86,4.44 9.26,9.26 0 0 1 -2.71,3.6 13.33,13.33 0 0 1 -4.7,2.39 23.73,23.73 0 0 1 -6.83,0.86 q -1.33,0 -2.91,-0.12 -1.58,-0.12 -3.23,-0.37 -1.64,-0.26 -3.23,-0.66 a 21.47,21.47 0 0 1 -3,-1 l 1.27,-6.51 a 32.21,32.21 0 0 0 5.47,1.33 32.86,32.86 0 0 0 4.78,0.4 10.19,10.19 0 0 0 5.71,-1.3 4.75,4.75 0 0 0 1.9,-4.24 7.32,7.32 0 0 0 -0.29,-2.07 4.17,4.17 0 0 0 -1,-1.73 5,5 0 0 0 -1.87,-1.18 8.28,8.28 0 0 0 -2.88,-0.43 z"
     fill="#545454"
     id="path966" />
  <path
     d="m 1062.9,304.58 h 32.9 v 11.3 h -32.9 z"
     fill="#69a0ef"
     id="path968" />
  <path
     d="m 1099.6,308.58 h 32.9 v 7.3 h -32.9 z"
     fill="#69a0ef"
     id="path970" />
  <path
     d="m 1136.2,228.48 h 32.9 v 87.4 h -32.9 z"
     fill="#69a0ef"
     id="path972" />
  <path
     d="m 1172.8,250.08 h 32.9 v 65.8 h -32.9 z"
     fill="#69a0ef"
     id="path974" />
  <path
     d="m 1209.4,282.98 h 32.9 v 32.9 h -32.9 z"
     fill="#69a0ef"
     id="path976" />
  <path
     d="m 1246,293.48 h 32.9 v 22.4 H 1246 Z"
     fill="#69a0ef"
     id="path978" />
  <path
     d="m 1323.1,255.18 h 32.9 v 60.7 h -32.9 z"
     fill="#69a0ef"
     id="path980" />
  <path
     d="m 1359.8,255.18 h 32.9 v 60.7 h -32.9 z"
     fill="#69a0ef"
     id="path982" />
  <path
     d="m 1396.4,252.58 h 32.9 v 63.3 h -32.9 z"
     fill="#69a0ef"
     id="path984" />
  <path
     d="m 1433,247.08 h 32.9 v 68.8 H 1433 Z"
     fill="#69a0ef"
     id="path986" />
  <path
     d="m 1469.6,250.28 h 32.9 v 65.6 h -32.9 z"
     fill="#69a0ef"
     id="path988" />
  <path
     d="m 1506.2,250.28 h 32.9 v 65.6 h -32.9 z"
     fill="#69a0ef"
     id="path990" />
  <path
     d="m 1119.6,150.68 0.7,-3.7 h 3.8 a 5.9,5.9 0 0 0 1.4,-0.2 2.36,2.36 0 0 0 0.9,-0.6 1.23,1.23 0 0 0 0.4,-0.8 2.77,2.77 0 0 0 0.1,-0.9 3.08,3.08 0 0 0 -0.3,-1.3 3,3 0 0 0 -0.8,-0.8 2.84,2.84 0 0 0 -1.2,-0.4 7.57,7.57 0 0 0 -1.5,-0.1 17.33,17.33 0 0 0 -3.2,0.3 c -1,0.2 -2,0.5 -3,0.8 l 0.6,-3.9 a 14.73,14.73 0 0 1 2.8,-0.8 19.53,19.53 0 0 1 3.4,-0.3 13.93,13.93 0 0 1 3.5,0.4 5.45,5.45 0 0 1 2.4,1.2 4.89,4.89 0 0 1 1.4,1.8 5.93,5.93 0 0 1 0.5,2.3 v 0.4 a 5,5 0 0 1 -0.7,2.7 6,6 0 0 1 -2.3,1.9 5.46,5.46 0 0 1 2.5,2 6.09,6.09 0 0 1 0.8,3.2 v 0.4 a 7.42,7.42 0 0 1 -0.5,2.5 5,5 0 0 1 -1.5,2 7.07,7.07 0 0 1 -2.6,1.3 15.83,15.83 0 0 1 -3.8,0.5 9.15,9.15 0 0 1 -1.6,-0.1 11,11 0 0 1 -1.8,-0.2 11.63,11.63 0 0 1 -1.8,-0.4 5.77,5.77 0 0 1 -1.7,-0.6 l 0.7,-3.6 a 15.54,15.54 0 0 0 3.1,0.7 24.52,24.52 0 0 0 2.7,0.2 6,6 0 0 0 3.2,-0.7 2.9,2.9 0 0 0 1.1,-2.4 5,5 0 0 0 -0.2,-1.2 2.08,2.08 0 0 0 -0.6,-1 3.59,3.59 0 0 0 -1,-0.7 3,3 0 0 0 -1.6,-0.2 z"
     id="path994" />
  <path
     d="m 1135,164.98 1.7,-5.2 a 2,2 0 0 1 -0.9,-0.9 2.77,2.77 0 0 1 -0.3,-1.3 2.19,2.19 0 0 1 0.7,-1.7 3.15,3.15 0 0 1 3.9,0 2.24,2.24 0 0 1 0.6,1.7 5.85,5.85 0 0 1 -0.2,1.3 6.12,6.12 0 0 1 -0.5,1.2 l -2.3,4.9 z"
     id="path996" />
  <path
     d="m 1143.7,147.98 a 19.92,19.92 0 0 1 0.4,-4.2 9,9 0 0 1 1.3,-3.2 6,6 0 0 1 2.5,-2 11,11 0 0 1 8,0.1 6.41,6.41 0 0 1 2.5,2.1 7.83,7.83 0 0 1 1.2,3.2 27.28,27.28 0 0 1 0.3,4.1 v 2.7 a 19.92,19.92 0 0 1 -0.4,4.2 9,9 0 0 1 -1.3,3.2 5.46,5.46 0 0 1 -2.5,2 11,11 0 0 1 -8,-0.1 7.21,7.21 0 0 1 -2.5,-2.1 7.83,7.83 0 0 1 -1.2,-3.2 27.28,27.28 0 0 1 -0.3,-4.1 z m 4.8,2.7 a 15.14,15.14 0 0 0 0.2,3 6,6 0 0 0 0.6,1.9 2.66,2.66 0 0 0 1,1.1 4.42,4.42 0 0 0 3.2,0 2.17,2.17 0 0 0 1,-1.1 7,7 0 0 0 0.6,-1.9 c 0.1,-1 0.2,-2 0.2,-3 v -2.7 a 15.14,15.14 0 0 0 -0.2,-3 6,6 0 0 0 -0.6,-1.9 2.66,2.66 0 0 0 -1,-1.1 4.42,4.42 0 0 0 -3.2,0 2.17,2.17 0 0 0 -1,1.1 7,7 0 0 0 -0.6,1.9 c -0.1,1 -0.2,2 -0.2,3 z"
     id="path998" />
  <path
     d="m 1162.5,147.98 a 19.92,19.92 0 0 1 0.4,-4.2 9,9 0 0 1 1.3,-3.2 6,6 0 0 1 2.5,-2 11,11 0 0 1 8,0.1 6.41,6.41 0 0 1 2.5,2.1 7.83,7.83 0 0 1 1.2,3.2 27.28,27.28 0 0 1 0.3,4.1 v 2.7 a 19.92,19.92 0 0 1 -0.4,4.2 9,9 0 0 1 -1.3,3.2 5.46,5.46 0 0 1 -2.5,2 11,11 0 0 1 -8,-0.1 7.21,7.21 0 0 1 -2.5,-2.1 7.83,7.83 0 0 1 -1.2,-3.2 27.28,27.28 0 0 1 -0.3,-4.1 z m 4.8,2.7 a 15.14,15.14 0 0 0 0.2,3 6,6 0 0 0 0.6,1.9 2.66,2.66 0 0 0 1,1.1 4.42,4.42 0 0 0 3.2,0 2.17,2.17 0 0 0 1,-1.1 7,7 0 0 0 0.6,-1.9 c 0.1,-1 0.2,-2 0.2,-3 v -2.7 a 15.14,15.14 0 0 0 -0.2,-3 6,6 0 0 0 -0.6,-1.9 2.66,2.66 0 0 0 -1,-1.1 4.42,4.42 0 0 0 -3.2,0 2.17,2.17 0 0 0 -1,1.1 7,7 0 0 0 -0.6,1.9 c -0.1,1 -0.2,2 -0.2,3 z"
     id="path1000" />
  <path
     d="m 1188.1,160.68 h -1.5 a 9.85,9.85 0 0 1 -1.7,-0.2 l -1.8,-0.3 a 10.93,10.93 0 0 1 -1.7,-0.5 l 0.7,-3.7 a 13.57,13.57 0 0 0 2.9,0.6 24.58,24.58 0 0 0 2.8,0.2 4.83,4.83 0 0 0 3.1,-0.8 2.72,2.72 0 0 0 0.9,-2.4 4.14,4.14 0 0 0 -0.3,-1.6 2.19,2.19 0 0 0 -0.9,-1 5.78,5.78 0 0 0 -1.4,-0.5 13.4,13.4 0 0 0 -2,-0.1 h -4.6 l 0.3,-12.1 h 12.6 l -0.5,3.8 h -7.8 l -0.1,4.5 h 1.8 a 14.72,14.72 0 0 1 3.6,0.4 5.64,5.64 0 0 1 2.4,1.3 4.65,4.65 0 0 1 1.3,2.1 9.24,9.24 0 0 1 0.4,2.9 v 0.5 a 9.18,9.18 0 0 1 -0.5,2.8 6.62,6.62 0 0 1 -1.5,2.2 9.39,9.39 0 0 1 -2.6,1.4 16.67,16.67 0 0 1 -3.9,0.5 z"
     id="path1002" />
  <path
     d="m 1203.2,155.28 a 3.94,3.94 0 0 1 2.1,0.6 3.21,3.21 0 0 1 0,4 3.45,3.45 0 0 1 -4.1,0 3.21,3.21 0 0 1 0,-4 3.38,3.38 0 0 1 2,-0.6 z"
     id="path1004" />
  <path
     d="m 1208.7,147.98 a 19.92,19.92 0 0 1 0.4,-4.2 9,9 0 0 1 1.3,-3.2 6,6 0 0 1 2.5,-2 11,11 0 0 1 8,0.1 6.41,6.41 0 0 1 2.5,2.1 7.83,7.83 0 0 1 1.2,3.2 27.28,27.28 0 0 1 0.3,4.1 v 2.7 a 27.27,27.27 0 0 1 -0.3,4.1 9,9 0 0 1 -1.3,3.2 5.46,5.46 0 0 1 -2.5,2 11,11 0 0 1 -8,-0.1 7.21,7.21 0 0 1 -2.5,-2.1 7.83,7.83 0 0 1 -1.2,-3.2 27.28,27.28 0 0 1 -0.3,-4.1 z m 4.8,2.7 a 15.14,15.14 0 0 0 0.2,3 6,6 0 0 0 0.6,1.9 2.66,2.66 0 0 0 1,1.1 4.42,4.42 0 0 0 3.2,0 2.17,2.17 0 0 0 1,-1.1 7,7 0 0 0 0.6,-1.9 c 0.1,-1 0.2,-2 0.2,-3 v -2.7 a 15.14,15.14 0 0 0 -0.2,-3 6,6 0 0 0 -0.6,-1.9 2.66,2.66 0 0 0 -1,-1.1 4.42,4.42 0 0 0 -3.2,0 2.17,2.17 0 0 0 -1,1.1 7,7 0 0 0 -0.6,1.9 c -0.1,1 -0.2,2 -0.2,3 z"
     id="path1006" />
  <path
     d="m 1227.5,147.98 a 19.92,19.92 0 0 1 0.4,-4.2 9,9 0 0 1 1.3,-3.2 6,6 0 0 1 2.5,-2 11,11 0 0 1 8,0.1 6.41,6.41 0 0 1 2.5,2.1 7.83,7.83 0 0 1 1.2,3.2 27.28,27.28 0 0 1 0.3,4.1 v 2.7 a 19.92,19.92 0 0 1 -0.4,4.2 9,9 0 0 1 -1.3,3.2 5.46,5.46 0 0 1 -2.5,2 11,11 0 0 1 -8,-0.1 7.21,7.21 0 0 1 -2.5,-2.1 7.83,7.83 0 0 1 -1.2,-3.2 27.28,27.28 0 0 1 -0.3,-4.1 z m 4.8,2.7 a 15.14,15.14 0 0 0 0.2,3 6,6 0 0 0 0.6,1.9 2.66,2.66 0 0 0 1,1.1 4.42,4.42 0 0 0 3.2,0 2.17,2.17 0 0 0 1,-1.1 7,7 0 0 0 0.6,-1.9 c 0.1,-1 0.2,-2 0.2,-3 v -2.7 a 15.14,15.14 0 0 0 -0.2,-3 6,6 0 0 0 -0.6,-1.9 2.66,2.66 0 0 0 -1,-1.1 4.42,4.42 0 0 0 -3.2,0 2.17,2.17 0 0 0 -1,1.1 7,7 0 0 0 -0.6,1.9 c -0.1,1 -0.2,2 -0.2,3 z"
     id="path1008" />
  <path
     d="m 1164.4,178.68 h 2.7 v -2.7 l 1.7,-0.3 v 3 h 1.2 l -0.2,1.4 h -1 v 2 h -1.7 v -2 h -4.6 v -1.3 l 3.9,-6.9 h 1.8 z"
     fill="#e7616a"
     id="path1010" />
  <path
     d="m 1173.1,178.68 h 2.7 v -2.7 l 1.7,-0.3 v 3 h 1.2 l -0.2,1.4 h -1 v 2 h -1.7 v -2 h -4.6 v -1.3 l 3.9,-6.9 h 1.8 z"
     fill="#e7616a"
     id="path1012" />
  <path
     d="m 1182.4,171.88 a 5,5 0 0 1 1.2,0.2 1.56,1.56 0 0 1 0.8,0.6 3.55,3.55 0 0 1 0.4,0.9 4.1,4.1 0 0 1 0.1,1.1 v 0.5 a 4.1,4.1 0 0 1 -0.1,1.1 3.55,3.55 0 0 1 -0.4,0.9 1.55,1.55 0 0 1 -0.8,0.6 2.54,2.54 0 0 1 -1.2,0.2 5,5 0 0 1 -1.2,-0.2 1.56,1.56 0 0 1 -0.8,-0.6 3.55,3.55 0 0 1 -0.4,-0.9 4.1,4.1 0 0 1 -0.1,-1.1 v -0.5 a 3.75,3.75 0 0 1 0.1,-1.1 3.55,3.55 0 0 1 0.4,-0.9 5.54,5.54 0 0 1 0.8,-0.6 5,5 0 0 1 1.2,-0.2 z m 0,4.8 a 0.91,0.91 0 0 0 0.8,-0.4 1.72,1.72 0 0 0 0.2,-1.2 v -0.4 a 2.2,2.2 0 0 0 -0.1,-0.8 c 0,-0.2 -0.1,-0.3 -0.2,-0.5 -0.1,-0.2 -0.2,-0.2 -0.3,-0.2 a 0.6,0.6 0 0 0 -0.4,-0.1 0.9,0.9 0 0 0 -0.5,0.1 c -0.1,0 -0.2,0.1 -0.3,0.2 a 0.76,0.76 0 0 0 -0.2,0.5 c 0,0.3 -0.1,0.5 -0.1,0.8 v 0.4 a 2.35,2.35 0 0 0 0.2,1.2 1.22,1.22 0 0 0 0.9,0.4 z m 5.8,-4.7 h 1.6 l -5.8,10.1 h -1.6 z m 1.8,4.2 a 5,5 0 0 1 1.2,0.2 1.56,1.56 0 0 1 0.8,0.6 3.55,3.55 0 0 1 0.4,0.9 4.1,4.1 0 0 1 0.1,1.1 v 0.5 a 4.1,4.1 0 0 1 -0.1,1.1 3.55,3.55 0 0 1 -0.4,0.9 1.55,1.55 0 0 1 -0.8,0.6 2.54,2.54 0 0 1 -1.2,0.2 5,5 0 0 1 -1.2,-0.2 1.56,1.56 0 0 1 -0.8,-0.6 3.55,3.55 0 0 1 -0.4,-0.9 4.1,4.1 0 0 1 -0.1,-1.1 v -0.5 a 3.75,3.75 0 0 1 0.1,-1.1 3.55,3.55 0 0 1 0.4,-0.9 5.54,5.54 0 0 1 0.8,-0.6 5,5 0 0 1 1.2,-0.2 z m 0,4.8 a 0.91,0.91 0 0 0 0.8,-0.4 1.72,1.72 0 0 0 0.2,-1.2 v -0.4 a 2.2,2.2 0 0 0 -0.1,-0.8 c 0,-0.2 -0.1,-0.3 -0.2,-0.5 -0.1,-0.2 -0.2,-0.2 -0.3,-0.2 a 0.6,0.6 0 0 0 -0.4,-0.1 0.9,0.9 0 0 0 -0.5,0.1 c -0.1,0 -0.2,0.1 -0.3,0.2 a 0.76,0.76 0 0 0 -0.2,0.5 c 0,0.3 -0.1,0.5 -0.1,0.8 v 0.4 a 2.35,2.35 0 0 0 0.2,1.2 1.22,1.22 0 0 0 0.9,0.4 z"
     fill="#e7616a"
     id="path1014" />
  <path
     d="m 1155,182.08 a 0.6,0.6 0 0 1 -0.9,0 l -4.5,-4.4 a 0.5,0.5 0 0 1 0,-0.8 0.76,0.76 0 0 1 0.5,-0.2 c 0.2,0 0.3,0.1 0.5,0.2 l 3.3,3.3 v -9.9 c 0,-0.2 0.1,-0.3 0.2,-0.5 a 0.91,0.91 0 0 1 1,0 0.76,0.76 0 0 1 0.2,0.5 v 9.9 l 3.3,-3.3 a 0.75,0.75 0 0 1 0.9,0 0.52,0.52 0 0 1 0.2,0.4 c 0,0.2 -0.1,0.3 -0.2,0.5 l -2.2,2.2 z"
     fill="#e7616a"
     id="path1016" />
  <path
     d="m 1379.8,150.68 0.7,-3.7 h 3.8 a 3.89,3.89 0 0 0 1.5,-0.2 2.36,2.36 0 0 0 0.9,-0.6 1.23,1.23 0 0 0 0.4,-0.8 2.77,2.77 0 0 0 0.1,-0.9 3.08,3.08 0 0 0 -0.3,-1.3 3,3 0 0 0 -0.8,-0.8 2.84,2.84 0 0 0 -1.2,-0.4 7.57,7.57 0 0 0 -1.5,-0.1 17.33,17.33 0 0 0 -3.2,0.3 c -1,0.2 -2,0.5 -3,0.8 l 0.6,-3.9 a 14.73,14.73 0 0 1 2.8,-0.8 19.53,19.53 0 0 1 3.4,-0.3 13.93,13.93 0 0 1 3.5,0.4 5.45,5.45 0 0 1 2.4,1.2 4.89,4.89 0 0 1 1.4,1.8 5.93,5.93 0 0 1 0.5,2.3 v 0.4 a 5,5 0 0 1 -0.7,2.7 6,6 0 0 1 -2.3,1.9 5.46,5.46 0 0 1 2.5,2 6.09,6.09 0 0 1 0.8,3.2 v 0.4 a 7.42,7.42 0 0 1 -0.5,2.5 5,5 0 0 1 -1.5,2 7.07,7.07 0 0 1 -2.6,1.3 15.83,15.83 0 0 1 -3.8,0.5 9.15,9.15 0 0 1 -1.6,-0.1 11,11 0 0 1 -1.8,-0.2 11.63,11.63 0 0 1 -1.8,-0.4 5.77,5.77 0 0 1 -1.7,-0.6 l 0.7,-3.6 a 15.54,15.54 0 0 0 3.1,0.7 24.52,24.52 0 0 0 2.7,0.2 6,6 0 0 0 3.2,-0.7 2.9,2.9 0 0 0 1.1,-2.4 5,5 0 0 0 -0.2,-1.2 2.08,2.08 0 0 0 -0.6,-1 3.59,3.59 0 0 0 -1,-0.7 3,3 0 0 0 -1.6,-0.2 z"
     id="path1020" />
  <path
     d="m 1395.2,164.98 1.7,-5.2 a 2,2 0 0 1 -0.9,-0.9 2.77,2.77 0 0 1 -0.3,-1.3 2.19,2.19 0 0 1 0.7,-1.7 3.15,3.15 0 0 1 3.9,0 2.24,2.24 0 0 1 0.6,1.7 5.85,5.85 0 0 1 -0.2,1.3 6.12,6.12 0 0 1 -0.5,1.2 l -2.3,4.9 z"
     id="path1022" />
  <path
     d="m 1403.9,147.98 a 19.92,19.92 0 0 1 0.4,-4.2 9,9 0 0 1 1.3,-3.2 6,6 0 0 1 2.5,-2 11,11 0 0 1 8,0.1 6.41,6.41 0 0 1 2.5,2.1 7.83,7.83 0 0 1 1.2,3.2 27.28,27.28 0 0 1 0.3,4.1 v 2.7 a 19.92,19.92 0 0 1 -0.4,4.2 9,9 0 0 1 -1.3,3.2 5.46,5.46 0 0 1 -2.5,2 11,11 0 0 1 -8,-0.1 7.21,7.21 0 0 1 -2.5,-2.1 7.83,7.83 0 0 1 -1.2,-3.2 27.28,27.28 0 0 1 -0.3,-4.1 z m 4.8,2.7 a 15.14,15.14 0 0 0 0.2,3 6,6 0 0 0 0.6,1.9 2.66,2.66 0 0 0 1,1.1 4.42,4.42 0 0 0 3.2,0 2.17,2.17 0 0 0 1,-1.1 7,7 0 0 0 0.6,-1.9 c 0.1,-1 0.2,-2 0.2,-3 v -2.7 a 15.14,15.14 0 0 0 -0.2,-3 6,6 0 0 0 -0.6,-1.9 2.66,2.66 0 0 0 -1,-1.1 4.42,4.42 0 0 0 -3.2,0 2.17,2.17 0 0 0 -1,1.1 7,7 0 0 0 -0.6,1.9 c -0.1,1 -0.2,2 -0.2,3 z"
     id="path1024" />
  <path
     d="m 1422.7,147.98 a 19.92,19.92 0 0 1 0.4,-4.2 9,9 0 0 1 1.3,-3.2 6,6 0 0 1 2.5,-2 11,11 0 0 1 8,0.1 6.41,6.41 0 0 1 2.5,2.1 7.83,7.83 0 0 1 1.2,3.2 27.28,27.28 0 0 1 0.3,4.1 v 2.7 a 27.27,27.27 0 0 1 -0.3,4.1 9,9 0 0 1 -1.3,3.2 5.46,5.46 0 0 1 -2.5,2 11,11 0 0 1 -8,-0.1 7.21,7.21 0 0 1 -2.5,-2.1 7.83,7.83 0 0 1 -1.2,-3.2 27.28,27.28 0 0 1 -0.3,-4.1 z m 4.8,2.7 a 15.14,15.14 0 0 0 0.2,3 6,6 0 0 0 0.6,1.9 2.66,2.66 0 0 0 1,1.1 4.42,4.42 0 0 0 3.2,0 2.17,2.17 0 0 0 1,-1.1 7,7 0 0 0 0.6,-1.9 c 0.1,-1 0.2,-2 0.2,-3 v -2.7 a 15.14,15.14 0 0 0 -0.2,-3 6,6 0 0 0 -0.6,-1.9 2.66,2.66 0 0 0 -1,-1.1 4.42,4.42 0 0 0 -3.2,0 2.17,2.17 0 0 0 -1,1.1 7,7 0 0 0 -0.6,1.9 c -0.1,1 -0.2,2 -0.2,3 z"
     id="path1026" />
  <path
     d="m 1448.4,160.68 h -1.5 a 9.85,9.85 0 0 1 -1.7,-0.2 l -1.8,-0.3 a 10.93,10.93 0 0 1 -1.7,-0.5 l 0.7,-3.7 a 13.57,13.57 0 0 0 2.9,0.6 24.58,24.58 0 0 0 2.8,0.2 4.83,4.83 0 0 0 3.1,-0.8 2.72,2.72 0 0 0 0.9,-2.4 4.14,4.14 0 0 0 -0.3,-1.6 2.19,2.19 0 0 0 -0.9,-1 5.78,5.78 0 0 0 -1.4,-0.5 13.4,13.4 0 0 0 -2,-0.1 h -4.6 l 0.3,-12.1 h 12.6 l -0.5,3.8 h -7.8 l -0.1,4.5 h 1.8 a 14.72,14.72 0 0 1 3.6,0.4 5.64,5.64 0 0 1 2.4,1.3 4.65,4.65 0 0 1 1.3,2.1 9.24,9.24 0 0 1 0.4,2.9 v 0.5 a 9.18,9.18 0 0 1 -0.5,2.8 6.62,6.62 0 0 1 -1.5,2.2 9.39,9.39 0 0 1 -2.6,1.4 19,19 0 0 1 -3.9,0.5 z"
     id="path1028" />
  <path
     d="m 1463.4,155.28 a 3.94,3.94 0 0 1 2.1,0.6 3.21,3.21 0 0 1 0,4 3.45,3.45 0 0 1 -4.1,0 3.21,3.21 0 0 1 0,-4 3.38,3.38 0 0 1 2,-0.6 z"
     id="path1030" />
  <path
     d="m 1468.9,147.98 a 19.92,19.92 0 0 1 0.4,-4.2 9,9 0 0 1 1.3,-3.2 6,6 0 0 1 2.5,-2 11,11 0 0 1 8,0.1 6.41,6.41 0 0 1 2.5,2.1 7.83,7.83 0 0 1 1.2,3.2 27.28,27.28 0 0 1 0.3,4.1 v 2.7 a 19.92,19.92 0 0 1 -0.4,4.2 9,9 0 0 1 -1.3,3.2 5.46,5.46 0 0 1 -2.5,2 11,11 0 0 1 -8,-0.1 7.21,7.21 0 0 1 -2.5,-2.1 7.83,7.83 0 0 1 -1.2,-3.2 27.28,27.28 0 0 1 -0.3,-4.1 z m 4.8,2.7 a 15.14,15.14 0 0 0 0.2,3 6,6 0 0 0 0.6,1.9 2.66,2.66 0 0 0 1,1.1 4.42,4.42 0 0 0 3.2,0 2.17,2.17 0 0 0 1,-1.1 7,7 0 0 0 0.6,-1.9 c 0.1,-1 0.2,-2 0.2,-3 v -2.7 a 15.14,15.14 0 0 0 -0.2,-3 6,6 0 0 0 -0.6,-1.9 2.66,2.66 0 0 0 -1,-1.1 4.42,4.42 0 0 0 -3.2,0 2.17,2.17 0 0 0 -1,1.1 7,7 0 0 0 -0.6,1.9 c -0.1,1 -0.2,2 -0.2,3 z"
     id="path1032" />
  <path
     d="m 1487.7,147.98 a 19.92,19.92 0 0 1 0.4,-4.2 9,9 0 0 1 1.3,-3.2 6,6 0 0 1 2.5,-2 11,11 0 0 1 8,0.1 6.41,6.41 0 0 1 2.5,2.1 7.83,7.83 0 0 1 1.2,3.2 27.28,27.28 0 0 1 0.3,4.1 v 2.7 a 27.27,27.27 0 0 1 -0.3,4.1 9,9 0 0 1 -1.3,3.2 5.46,5.46 0 0 1 -2.5,2 11,11 0 0 1 -8,-0.1 7.21,7.21 0 0 1 -2.5,-2.1 7.83,7.83 0 0 1 -1.2,-3.2 27.28,27.28 0 0 1 -0.3,-4.1 z m 4.8,2.7 a 15.14,15.14 0 0 0 0.2,3 6,6 0 0 0 0.6,1.9 2.66,2.66 0 0 0 1,1.1 4.42,4.42 0 0 0 3.2,0 2.17,2.17 0 0 0 1,-1.1 7,7 0 0 0 0.6,-1.9 c 0.1,-1 0.2,-2 0.2,-3 v -2.7 a 15.14,15.14 0 0 0 -0.2,-3 6,6 0 0 0 -0.6,-1.9 2.66,2.66 0 0 0 -1,-1.1 4.42,4.42 0 0 0 -3.2,0 2.17,2.17 0 0 0 -1,1.1 7,7 0 0 0 -0.6,1.9 c -0.1,1 -0.2,2 -0.2,3 z"
     id="path1034" />
  <path
     d="m 1424.8,177.58 0.3,-1.4 h 1.8 a 1.7,1.7 0 0 0 0.7,-0.1 1.38,1.38 0 0 0 0.4,-0.3 0.76,0.76 0 0 0 0.2,-0.4 c 0,-0.2 0.1,-0.3 0.1,-0.5 a 1,1 0 0 0 -0.2,-0.7 0.78,0.78 0 0 0 -0.4,-0.4 1.42,1.42 0 0 0 -0.6,-0.2 c -0.3,0 -0.5,-0.1 -0.8,-0.1 a 5.7,5.7 0 0 0 -1.3,0.1 8.33,8.33 0 0 0 -1.5,0.4 l 0.2,-1.5 a 6.47,6.47 0 0 1 1.3,-0.4 6.6,6.6 0 0 1 1.4,-0.1 9.85,9.85 0 0 1 1.7,0.2 2.38,2.38 0 0 1 1.1,0.6 1.55,1.55 0 0 1 0.6,0.8 3.55,3.55 0 0 1 0.2,1 v 0.2 a 2.16,2.16 0 0 1 -1.4,2.2 2.44,2.44 0 0 1 1.1,0.9 2.93,2.93 0 0 1 0.4,1.6 v 0.2 a 3.6,3.6 0 0 1 -0.2,1.1 2.18,2.18 0 0 1 -0.7,0.9 2.73,2.73 0 0 1 -1.2,0.6 4.68,4.68 0 0 1 -1.7,0.2 8.6,8.6 0 0 1 -1.6,-0.1 8.33,8.33 0 0 1 -1.5,-0.4 l 0.3,-1.4 a 3.08,3.08 0 0 0 1.3,0.3 5.28,5.28 0 0 0 1.3,0.1 3.29,3.29 0 0 0 1.7,-0.4 1.22,1.22 0 0 0 0.5,-1.2 1.27,1.27 0 0 0 -0.1,-0.6 1.42,1.42 0 0 0 -0.8,-0.9 2.2,2.2 0 0 0 -0.8,-0.1 z"
     fill="#8fc899"
     id="path1036" />
  <path
     d="m 1433.5,177.58 0.3,-1.4 h 1.8 a 1.7,1.7 0 0 0 0.7,-0.1 1.38,1.38 0 0 0 0.4,-0.3 0.76,0.76 0 0 0 0.2,-0.4 c 0,-0.2 0.1,-0.3 0.1,-0.5 a 1,1 0 0 0 -0.2,-0.7 0.78,0.78 0 0 0 -0.4,-0.4 1.42,1.42 0 0 0 -0.6,-0.2 c -0.3,0 -0.5,-0.1 -0.8,-0.1 a 5.7,5.7 0 0 0 -1.3,0.1 8.33,8.33 0 0 0 -1.5,0.4 l 0.2,-1.5 a 6.47,6.47 0 0 1 1.3,-0.4 6.6,6.6 0 0 1 1.4,-0.1 9.85,9.85 0 0 1 1.7,0.2 2.38,2.38 0 0 1 1.1,0.6 1.55,1.55 0 0 1 0.6,0.8 3.55,3.55 0 0 1 0.2,1 v 0.2 a 2,2 0 0 1 -1.4,2.1 2.44,2.44 0 0 1 1.1,0.9 2.93,2.93 0 0 1 0.4,1.6 v 0.2 a 3.6,3.6 0 0 1 -0.2,1.1 2.18,2.18 0 0 1 -0.7,0.9 2.73,2.73 0 0 1 -1.2,0.6 4.68,4.68 0 0 1 -1.7,0.2 8.6,8.6 0 0 1 -1.6,-0.1 8.33,8.33 0 0 1 -1.5,-0.4 l 0.3,-1.4 a 3.08,3.08 0 0 0 1.3,0.3 5.28,5.28 0 0 0 1.3,0.1 3.29,3.29 0 0 0 1.7,-0.4 1.22,1.22 0 0 0 0.5,-1.2 1.27,1.27 0 0 0 -0.1,-0.6 1.42,1.42 0 0 0 -0.8,-0.9 2.2,2.2 0 0 0 -0.8,-0.1 z"
     fill="#8fc899"
     id="path1038" />
  <path
     d="m 1443.2,171.88 a 5,5 0 0 1 1.2,0.2 1.56,1.56 0 0 1 0.8,0.6 3.55,3.55 0 0 1 0.4,0.9 4.1,4.1 0 0 1 0.1,1.1 v 0.5 a 4.1,4.1 0 0 1 -0.1,1.1 3.55,3.55 0 0 1 -0.4,0.9 1.55,1.55 0 0 1 -0.8,0.6 2.54,2.54 0 0 1 -1.2,0.2 5,5 0 0 1 -1.2,-0.2 1.56,1.56 0 0 1 -0.8,-0.6 3.55,3.55 0 0 1 -0.4,-0.9 4.1,4.1 0 0 1 -0.1,-1.1 v -0.5 a 3.75,3.75 0 0 1 0.1,-1.1 3.55,3.55 0 0 1 0.4,-0.9 5.54,5.54 0 0 1 0.8,-0.6 5,5 0 0 1 1.2,-0.2 z m 0,4.8 a 0.91,0.91 0 0 0 0.8,-0.4 1.72,1.72 0 0 0 0.2,-1.2 v -0.4 a 2.2,2.2 0 0 0 -0.1,-0.8 c 0,-0.2 -0.1,-0.3 -0.2,-0.5 -0.1,-0.2 -0.2,-0.2 -0.3,-0.2 a 0.6,0.6 0 0 0 -0.4,-0.1 0.9,0.9 0 0 0 -0.5,0.1 c -0.1,0 -0.2,0.1 -0.3,0.2 a 0.76,0.76 0 0 0 -0.2,0.5 c 0,0.3 -0.1,0.5 -0.1,0.8 v 0.4 a 2.35,2.35 0 0 0 0.2,1.2 1.22,1.22 0 0 0 0.9,0.4 z m 5.8,-4.7 h 1.6 l -5.8,10.1 h -1.6 z m 1.8,4.2 a 5,5 0 0 1 1.2,0.2 1.56,1.56 0 0 1 0.8,0.6 3.55,3.55 0 0 1 0.4,0.9 4.1,4.1 0 0 1 0.1,1.1 v 0.5 a 4.1,4.1 0 0 1 -0.1,1.1 3.55,3.55 0 0 1 -0.4,0.9 1.55,1.55 0 0 1 -0.8,0.6 2.54,2.54 0 0 1 -1.2,0.2 5,5 0 0 1 -1.2,-0.2 1.56,1.56 0 0 1 -0.8,-0.6 3.55,3.55 0 0 1 -0.4,-0.9 4.1,4.1 0 0 1 -0.1,-1.1 v -0.5 a 3.75,3.75 0 0 1 0.1,-1.1 3.55,3.55 0 0 1 0.4,-0.9 5.54,5.54 0 0 1 0.8,-0.6 5,5 0 0 1 1.2,-0.2 z m 0,4.8 a 0.91,0.91 0 0 0 0.8,-0.4 1.72,1.72 0 0 0 0.2,-1.2 v -0.4 a 2.2,2.2 0 0 0 -0.1,-0.8 c 0,-0.2 -0.1,-0.3 -0.2,-0.5 -0.1,-0.2 -0.2,-0.2 -0.3,-0.2 a 0.6,0.6 0 0 0 -0.4,-0.1 0.9,0.9 0 0 0 -0.5,0.1 c -0.1,0 -0.2,0.1 -0.3,0.2 a 0.76,0.76 0 0 0 -0.2,0.5 c 0,0.3 -0.1,0.5 -0.1,0.8 v 0.4 a 2.35,2.35 0 0 0 0.2,1.2 1.22,1.22 0 0 0 0.9,0.4 z"
     fill="#8fc899"
     id="path1040" />
  <path
     d="m 1413.7,169.78 a 0.6,0.6 0 0 1 0.9,0 l 4.5,4.4 a 0.5,0.5 0 0 1 0,0.8 0.76,0.76 0 0 1 -0.5,0.2 c -0.2,0 -0.3,-0.1 -0.5,-0.2 l -3.3,-3.3 v 9.9 c 0,0.2 -0.1,0.3 -0.2,0.5 a 0.91,0.91 0 0 1 -1,0 0.76,0.76 0 0 1 -0.2,-0.5 v -9.9 l -3.3,3.3 a 0.75,0.75 0 0 1 -0.9,0 0.52,0.52 0 0 1 -0.2,-0.4 c 0,-0.2 0.1,-0.3 0.2,-0.5 l 2.2,-2.2 z"
     fill="#8fc899"
     id="path1042" />
  <circle
     cx="1518.66"
     cy="695.2"
     fill="#fff"
     r=".7"
     transform="matrix(.96174131 -.27395922 .27395922 .96174131 -132.37 425.12)"
     id="circle1046" />
  <path
     d="m 340.4,618.68 -15.4,-8.5 c 0,0 -12.9,13.9 -5.4,23.5 l 23.7,17 z"
     fill="#765b3e"
     id="path1068" />
  <path
     d="m 288.7,627.28 c 0,0 -6.7,-13.2 -19.5,-13.2 -12.8,0 -12.6,15.3 -12.6,15.3 0,0 -13.2,18.7 -6.1,26.8 7.1,8.1 20.1,4.5 25.9,-8.9 5.8,-13.4 12.3,-20 12.3,-20 z"
     fill="#e8a661"
     id="path1070" />
  <path
     d="m 335,608.28 c 0,0 -14.4,-11.1 -22.5,-3.4 -8.1,7.7 -0.9,11.2 -5,15.1 -4.1,3.9 -9.8,19.7 -9.8,19.7 l 14,8 c 0,0 11.2,-2 11.4,-13.1 l 3,-9.6 z"
     fill="#e8a661"
     id="path1072" />
  <path
     d="m 235.3,274.08 -2.4,-5.5 c 0,0 7.2,-13.7 1.2,-21.6 -6,-7.9 -10.1,-16.6 -25.1,-7.9 -15,8.7 -4,27.4 -4,27.4 0,0 7.1,9.6 10.8,10.4 l 2.2,5.3 z"
     fill="#cf9e76"
     id="path1074" />
  <path
     d="m 445.2,249.88 c 0,0 -0.1,-5.8 0.7,-6.8 0.8,-1 14.8,-16.1 10.7,-23.9 -4.1,-7.8 -16.5,-18.1 -31.5,-14.4 -15,3.7 -8.7,24.9 -6.9,27.1 1.8,2.2 9.4,8.2 8.4,15.8 z"
     fill="#cf9e76"
     id="path1076" />
  <path
     d="m 331.2,533.88 c 0,0 -3.3,67.8 0.2,83.2 3.5,15.4 2.7,42.8 2.7,42.8 l -37.8,-26.6 c 0,0 -0.8,-10.8 -16.2,-8.7 -8.5,1.2 -12.3,8.3 -14,14.4 a 9.08,9.08 0 0 0 5.1,10.9 c 3.5,1.5 8.1,4.4 13.5,10 11.6,12.1 37,55.7 63.2,54.9 26.2,-0.8 26.2,-28.7 26.2,-28.7 0,0 -1.7,16.6 13.7,19.1 15.4,2.5 35.3,10 39.9,-65.3 4.6,-75.3 -2.5,-110.1 -2.5,-110.1 l -50.7,-13.3 z"
     fill="#9d7952"
     id="path1078"
     style="fill:#e79c25;fill-opacity:1" />
  <path
     d="m 387.8,558.78 c 0,0 0.8,91.5 -13.7,127.2"
     style="opacity:0.2;fill:none;stroke:#231f20;stroke-width:4;stroke-linecap:round;stroke-miterlimit:10"
     id="path1080" />
  <path
     d="m 323.5,311.58 c 0,0 -7.6,-1.4 -8.4,6.5 -0.8,7.9 -0.5,31.9 -0.2,33 0.3,1.1 4.8,1.2 5.4,7.9 0.6,6.7 18.3,23.9 18.3,23.9 l 40.1,-6.6 c 0,0 5.7,-16.2 5.9,-18.8 0.2,-2.6 -1,-28.3 -2.2,-31 -1.2,-2.7 -2.3,-18.7 -23.6,-23.8 -22,-5.4 -30.4,-2 -35.3,8.9 z"
     fill="#231f20"
     id="path1082" />
  <path
     d="m 319.5,438.58 a 9.63,9.63 0 0 1 3,6.2 l 8.8,89 c 30.8,1.7 94,-4.2 94,-4.2 1,-23.7 -13.1,-89 -17,-106.2 a 10.34,10.34 0 0 1 1.2,-7.3 c 9.3,-15.2 31.5,-70.2 33.6,-75.9 2.1,-5.7 9.7,-79.1 10.7,-88.6 0.1,-0.5 -0.4,-1 -0.9,-1.1 l -30,-2.7 a 1.08,1.08 0 0 0 -1.1,0.8 l -10.5,68.4 c -0.6,3.9 -1.4,7.9 -2.3,11.8 l -8.2,34.4 c -1.5,5.3 -7,14.5 -9.8,17.7 -4.3,5 -15.7,8 -26.8,9.7 l -25.7,2.4 -15.9,-3.4 a 11.87,11.87 0 0 1 -6.5,-3.7 l -32.3,-35.3 a 61.78,61.78 0 0 1 -9.2,-12.9 l -35.2,-64.6 a 0.9,0.9 0 0 0 -1.3,-0.4 l -28.1,13.3 a 1,1 0 0 0 -0.5,1.3 c 0,0 43.5,92.9 110,151.3 z"
     fill="#1363f5"
     id="path1084"
     style="fill:#98c6c6;fill-opacity:1" />
  <path
     d="m 385.3,356.38 -1.4,-15 -7.8,-18 a 5.18,5.18 0 0 0 -5.8,-2.9 c -6.2,1.5 -17.9,4 -24.6,3.3 -9.4,-1 -20.4,1.8 -22.9,6.9 -2.5,5.1 -1.5,22.6 -1.5,22.6 l -6.5,-1.9 c 0,0 -3.6,0.4 -2.7,10.4 0.9,10 9.5,10.5 9.5,10.5 0,0 4.7,15.5 8.7,18.4 4,2.9 27,11.2 29.6,11.8 2.6,0.6 14.5,-8.8 19.7,-15 5.2,-6.2 8.3,-23 5.7,-31.1 z"
     fill="#cf9e76"
     id="path1086" />
  <path
     d="m 1164,491.18 -1.2,-5.1 c 0,0 8.5,-10.8 4.6,-18.6 -3.9,-7.8 -6.1,-16.1 -20.6,-11 -14.5,5.1 -8,23.2 -8,23.2 0,0 4.6,9.5 7.7,10.8 l 1.1,5 z"
     fill="#cf9e76"
     id="path1088" />
  <path
     d="m 1356.3,503.08 1.8,-5 c 0,0 -7.2,-11.7 -2.4,-19 4.8,-7.3 8,-15.3 21.7,-8.5 13.7,6.8 5.1,24 5.1,24 0,0 -5.7,8.9 -8.9,9.8 l -1.6,4.8 z"
     fill="#cf9e76"
     id="path1090" />
  <path
     d="m 1166.4,489.48 57.7,139.3 a 6,6 0 0 0 6,3.7 l 18.2,-1.4 18.9,4.6 h 15.7 a 9.65,9.65 0 0 0 8.6,-5.1 l 38.6,-69.7 22,-60.7 a 0.93,0.93 0 0 1 1.2,-0.6 l 22,7.1 a 1,1 0 0 1 0.6,1.3 l -33.2,96.1 -31.8,82 -11,49.2 a 71.05,71.05 0 0 0 -0.8,26.4 l 9.2,57 a 1.1,1.1 0 0 1 -0.8,1.2 h -0.2 l -94.7,-7.8 a 0.9,0.9 0 0 1 -0.9,-1.1 v -0.1 l 10.2,-51.8 a 63.78,63.78 0 0 0 -0.6,-27.5 l -12.2,-50.1 -36.7,-92.4 -28.3,-94.5 a 0.89,0.89 0 0 1 0.7,-1.2 h 0.1 l 20.4,-4.4 a 0.89,0.89 0 0 1 1.1,0.5 z"
     fill="#b61a1d"
     id="path1092"
     style="fill:#d8b7c2;fill-opacity:1" />
  <path
     d="m 1270.9,609.68 5.8,26 c 0,0 -13.3,5.8 -19.6,6.4 -6.3,0.6 -12.2,-9.5 -12.2,-9.5 0,0 6.5,-18 7,-22.8 h 19 z"
     fill="#cf9e76"
     id="path1094" />
  <path
     d="m 1318.5,543.58 a 18.1,18.1 0 0 0 -2.5,-3 15.87,15.87 0 0 0 -13.3,-26.4 15.83,15.83 0 0 0 -18.7,-12.2 h -0.1 a 16.53,16.53 0 0 0 -5.3,2.2 c -0.3,0.2 -0.5,0.4 -0.8,0.6 a 2.09,2.09 0 0 0 -0.4,-0.6 15.81,15.81 0 0 0 -21.8,-4.8 l -0.1,0.1 a 7.1,7.1 0 0 0 -1.4,1 15.87,15.87 0 0 0 -19.8,7.1 15.86,15.86 0 0 0 -17.7,13.8 15.07,15.07 0 0 0 -0.1,3 15.82,15.82 0 0 0 -9.4,20.3 17.1,17.1 0 0 0 3.1,5.2 15.93,15.93 0 0 0 1.2,22.4 17.07,17.07 0 0 0 5,3 15.83,15.83 0 0 0 15.8,15.8 h 0.1 a 17.33,17.33 0 0 0 3.2,-0.3 16,16 0 0 0 19.5,4.8 15.91,15.91 0 0 0 22.2,3.1 15.3,15.3 0 0 0 5.5,-7.7 15.75,15.75 0 0 0 13.9,-5 16,16 0 0 0 17.5,-14.1 17.45,17.45 0 0 0 -0.5,-6 l 0.2,-0.1 a 16.08,16.08 0 0 0 4.7,-22.2 z"
     fill="#231f20"
     id="path1096" />
  <ellipse
     cx="1263.6"
     cy="569.88"
     fill="#cf9e76"
     rx="41.3"
     ry="49.4"
     id="ellipse1100" />
  <path
     d="m1311 557.3a14.38 14.38 0 0 0 -17-11.2h-.1a27.58 27.58 0 0 0 -2.7.8 14.44 14.44 0 0 0 -15.1-13.8 22.54 22.54 0 0 0 -3.6.6 8.22 8.22 0 0 0 -11.2-2.7 7 7 0 0 0 -2.2 2 14.39 14.39 0 0 0 -17.9 3.3 14.34 14.34 0 0 0 -16.8 11.4v.1a12.29 12.29 0 0 0 -.2 2.7v.2a14.48 14.48 0 1 0 17.1 14.2v-.2a14.62 14.62 0 0 0 8.4-4.8 14.47 14.47 0 0 0 14.4-5.9 14.59 14.59 0 0 0 18.5 6.8 14.16 14.16 0 0 0 7.2 11.8 14.45 14.45 0 1 0 28.3-5.9 16 16 0 0 0 -7.1-9.4z"
     fill="#231f20"
     transform="translate(0 -17.62)"
     id="path1102" />
  <path
     d="m1302.7 567.6c7.7-5.6 2.4-17-6.9-14.4l1.2 1.2a11 11 0 0 0 -6-14.3 11.15 11.15 0 0 0 -12.6 3.1c-.8 1 .6 2.4 1.4 1.4 7.1-8 19.1-.6 15.3 9.3-.3.7.5 1.4 1.2 1.2 6.6-1.9 11.4 6.3 5.4 10.7-1 .8 0 2.5 1 1.8z"
     transform="translate(0 -17.62)"
     id="path1104" />
  <path
     d="m1279.6 531.5c-1.6-3.6-4.8-6.2-8.8-6.2a9.22 9.22 0 0 0 -5.1 1.5c-2.3 1.4-1.6 2.3-4.2 1.5-8.4-2.6-16.4-.7-19.8 8.3-.4 1.2 1.5 1.7 1.9.5 3.1-8.2 12.2-10.7 19.2-5.6a1.08 1.08 0 0 0 1.4-.3v-.1c3.7-5.5 11.1-4.5 13.7 1.4.5 1.2 2.2.2 1.7-1z"
     transform="translate(0 -17.62)"
     id="path1106" />
  <path
     d="m1226.7 562.5c-2.6 0-6.8-2.6-5.4-6a5.71 5.71 0 0 1 6-3.5 1.05 1.05 0 0 0 .9-.5 12.2 12.2 0 0 1 6.3-5.3c2.3-.8 11.8.6 6.4 5.2-1 .8.4 2.2 1.4 1.4 3.1-2.7 1.7-7.1-1.9-8.6-4.9-2-9.4 1.2-12.8 4.4-1.5 1.4-3.4 1.2-5.2 2.2a6.62 6.62 0 0 0 -3.3 5.2c-.4 4.3 3.5 7.4 7.5 7.4a1 1 0 0 0 1-.9v-.1a.82.82 0 0 0 -.8-.9z"
     transform="translate(0 -17.62)"
     id="path1108" />
  <ellipse
     cx="1182.6"
     cy="973.28"
     fill="#231f20"
     opacity=".1"
     rx="20.3"
     ry="5.6"
     id="ellipse1110" />
  <ellipse
     cx="1292.6"
     cy="985.98"
     fill="#231f20"
     opacity=".1"
     rx="20.3"
     ry="5.6"
     id="ellipse1112" />
  <ellipse
     cx="1333.9"
     cy="871.68"
     fill="#231f20"
     opacity=".1"
     rx="12"
     ry="3.3"
     id="ellipse1114" />
  <path
     d="m1317.5 871.6-10.7 27.5-2.8-62.3-87.1-6.7s-14.6 41-19.7 50-19.7 75.8-25.3 91.5 3.9 23 11.2 22.5 16.8-14 23.6-18.5 53.3-68 53.3-68 17.4 79.2 19.1 87.6 7.9 12.4 15.2 11.2 11.8-17.4 15.7-29.8c3.9-12.2 14.3-94.5 14.6-97.1v-.1zm-78.4 33 10.9-19a9.4 9.4 0 0 0 5.7 1l1.1 2.7z"
     fill="#14313f"
     transform="translate(0 -17.62)"
     id="path1116" />
  <path
     d="m1317.5 871.6s-2.2-8.7 4.8-10.6 10.1 7.7 12.6 10.6 9.7 14.9 2.9 19.1-14.3-.1-13.1-11.2z"
     fill="#5a4c49"
     transform="translate(0 -17.62)"
     id="path1118" />
  <path
     d="m932 743.7s18.8-8.5 24.3 4.9 15.2 50.4 3.7 67.5-17.6-18.8-20.7-25.5-12.2-17-12.2-17l-15.2-22.5z"
     fill="#d8ab36"
     transform="translate(0 -17.62)"
     id="path1120" />
  <path
     d="m876.1 761.3s13.4 22.5 13.1 28-1.5 24.9 8.8 24.9 11.5-40.7 6.1-52.9z"
     fill="#d8ab36"
     transform="translate(0 -17.62)"
     id="path1122" />
  <path
     d="m737.7 328s-2.2-15.6-2.4-20.3-4-23.3-14.6-15.4-.6 20.7-.8 22.9 6.7 18.8 6.7 18.8z"
     fill="#e5ad88"
     transform="translate(0 -17.62)"
     id="path1124" />
  <path
     d="m1051.8 526.2a44.79 44.79 0 0 0 8.5-4.2c3.5-2.4 13.2-4.4 13.7 4.2s2.4 18.2-5.8 18.7-9.2-4.8-16.4-4.7z"
     fill="#e5ad88"
     transform="translate(0 -17.62)"
     id="path1126" />
  <path
     d="m883.9 360.6c29 8.7 41.1 43.2 24.9 68.8a109.73 109.73 0 0 1 -16.5 20.1 95.38 95.38 0 0 1 -21.4 15.4l-3.8 14.8-29.9-7.8 3.8-14.8a91.56 91.56 0 0 1 -11.2-23.9 105.9 105.9 0 0 1 -4.6-25.6c-1.7-30.2 25.6-54.5 55.2-48 .6.1 1.2.3 1.7.4a6.36 6.36 0 0 0 1.8.6z"
     fill="#e5ad88"
     transform="translate(0 -17.62)"
     id="path1128" />
  <circle
     cx="870.77"
     cy="404.02"
     fill="#511c38"
     r="45.4"
     transform="matrix(.25139371 -.96788491 .96788491 .25139371 260.81 1127.64)"
     id="circle1130" />
  <circle
     cx="870.8"
     cy="386.38"
     fill="#231f20"
     r="9.5"
     id="circle1132" />
  <path
     d="m891.9 529.7s-28.6 15.8-24.9 38.3 6.1 29.2 6.1 29.2l-60.2 34-10.3-4.8s-14.6-37.1-14-58.3-7.3-31 0-53.5 10.3-31.6 3.1-51c-6.8-18.4-59.1-118.2-64.5-128.5a.88.88 0 0 1 .4-1.3l11.8-6.4a1.09 1.09 0 0 1 1.3.3c4.7 6.4 40.3 55.3 42.6 64.9s40.6 51.1 45.7 68.1a6 6 0 0 0 3.9 4l5.8 1.9s52.3 24.3 61.4 28 49.7 10.8 69.9 12.8c16.1 1.6 59 14.2 81.1 16.3a1.06 1.06 0 0 1 .9 1v16a.94.94 0 0 1 -1 1h-.2c-6.7-1.5-39.1-8.6-51.1-6.4-13.6 2.4-87.1-15.3-107.8-5.6z"
     fill="#e32759"
     transform="translate(0 -17.62)"
     id="path1134"
     style="fill:#5479ad;fill-opacity:1" />
  <path
     d="m873.6 400.4a4.08 4.08 0 0 1 1.7 3.8c-1 13.9-8.6 113.4-30.5 137.4-23.6 25.8-46.7 5.6-16.1-44 25.7-41.6 33.7-80.3 35.5-91.7a7.26 7.26 0 0 1 5.5-6.1 5.36 5.36 0 0 1 3.9.6z"
     fill="#511c38"
     transform="translate(0 -17.62)"
     id="path1136" />
  <path
     d="m873.1 597.2s29.8 33.4 20.7 60.8-55.9 68.1-55.9 68.1l94.2 17.6-4.9 29.7s-54.1-10.3-89.3-7.3-57.2 13.4-77.2 1.9 35.2-99.1 46.2-113l-4.3-28.6z"
     fill="#55758a"
     transform="translate(0 -17.62)"
     id="path1138"
     style="fill:#86b1db;fill-opacity:1" />
  <path
     d="m834.7 648.6s-35.2 53.5-40.7 82.7 22.5 31 40.7 29.8"
     fill="none"
     opacity=".2"
     stroke="#231f20"
     stroke-miterlimit="10"
     stroke-width="1.22"
     transform="translate(0 -17.62)"
     id="path1140" />
  <ellipse
     cx="865.5"
     cy="930.78"
     fill="#231f20"
     opacity=".1"
     rx="89.2"
     ry="10"
     id="ellipse1142" />
  <path
     d="m1567.4 846.8a1.27 1.27 0 0 1 -.1-.6s-15.9-21.8-23-25.1-53.2 14.4-53.2 14.4-4.5 13-4.8 19a41.8 41.8 0 0 0 1.8 14.9z"
     fill="#d9cab6"
     transform="translate(0 -17.62)"
     id="path1144" />
  <path
     d="m1492.6 868.1c-.5-.8-1-1.7-1.6-2.6-2.5-4.1-2.5-7.7-.9-12.1s4.3-14 4.3-14l-2.2-5.6-2.2.8s-4.5 13-4.8 19a39.1 39.1 0 0 0 2.2 15.9z"
     fill="#a17b48"
     transform="translate(0 -17.62)"
     id="path1146" />
  <path
     d="m1589.8 900.1s5.2 5-.5 6.6-17 5.7-17 5.7l-9.3-32.5-1-18.6 6.3 1.1 4.2.7a12.47 12.47 0 0 0 -3 2.1c-5.5 5.2-3.3 13.7-2.1 15.1 1.7 2 7.2.5 8.7-3.9s2.6-6.1 4.8-5.9a32.53 32.53 0 0 0 4.4-.3c.2.2.3.5.5.7 3 4.5 11.9 17.1 4 29.2z"
     fill="#a17b48"
     transform="translate(0 -17.62)"
     id="path1148" />
  <path
     d="m1557.8 908.4 5.1-4-8.6-45.7-11.4-11.1-14.3 4.1-3.5 28.6-18.1 2.6 10.2 13.4 9.3 12.9 13.6 2.2 5.8-2.2c-.1.1 4.1 1.1 11.9-.8z"
     fill="#8e7961"
     transform="translate(0 -17.62)"
     id="path1150" />
  <path
     d="m1585.3 870.2a16 16 0 0 1 -4.4.3c-2.3-.2-3.3 1.5-4.8 5.9s-7 5.9-8.7 3.9c-1.2-1.4-3.4-9.9 2.1-15.1a12.47 12.47 0 0 1 3-2.1 10.84 10.84 0 0 1 1.9-.8 3.38 3.38 0 0 1 .6 1.2s7 2.6 10.3 6.7z"
     fill="#8e7961"
     transform="translate(0 -17.62)"
     id="path1152" />
  <path
     d="m1529.3 919.6s.1 5 7.4 1.5c0 0 6.3.7 6-3.4s3.2-8.5 3.2-8.5-17.9 2.6-28.8-12.9l6.7 15s3.9 2.3 5 2.2c0 0-3.3 4-5.7 3.6s6.2 2.5 6.2 2.5z"
     fill="#a17b48"
     transform="translate(0 -17.62)"
     id="path1154" />
  <path
     d="m1487.6 869.6 29.4 51.6s-7.9 1.1-6.7 7.5 6.2 4.1 7.6 2.3c0 0 7.1-.3 7.7-3 0 0 7.7.9 3.7-8.4s-9.5-16.2-11-30.6c0 0 13.8 11.3 20.1 9.5s15.1-5.4 12.9-9.9-2.9-9.9-3.5-12.5-6.1-10.4-6.7-13.3-3-4.8-2.2-7.8 3-6.2 3.6-2.7-1.2 3.5.9 8.5 3.9 8.2 6.7 11 2.2 9.8 3.9 13.5 3.9 23.1 3.9 23.1-3.1 5.4-.2 7.7 5.7-.5 5.7-.5 8.1.5 9-3.1c0 0 5.5 1.5 3.8-4.5s-4.8-9-5.6-13.9 1.1-23.8-.6-28l-.3-.9-3.9-12.6-3.1-6.5-20.4-2.2-26.9 11.6-20 8.2z"
     fill="#d9cab6"
     transform="translate(0 -17.62)"
     id="path1156" />
  <path
     d="m1542.9 834.9.2.1a90.54 90.54 0 0 1 12.8 6.5l.1.1a12.9 12.9 0 0 1 4.9 7l7.2-2-.1-.3v-.1c-.7-2.4-3.9-5.2-4.4-5.6l-.1-.1c-1.1-1.2-11.8-15.2-18.3-19.4a11.45 11.45 0 0 0 -3.6-1.5 1.48 1.48 0 0 0 -1.6.8l-3.8 8.9a1.31 1.31 0 0 0 .5 1.7z"
     fill="#a17b48"
     transform="translate(0 -17.62)"
     id="path1158" />
  <path
     d="m1574.4 862.3a10.84 10.84 0 0 0 -1.9.8 12.47 12.47 0 0 0 -3 2.1c-.3-.7-.7-1.6-1.2-2.8a78.69 78.69 0 0 0 -7.4-13.7l7.1-2s.9 10.5 3.6 12.8a12.4 12.4 0 0 1 2.8 2.8z"
     fill="#a17b48"
     transform="translate(0 -17.62)"
     id="path1160" />
  <path
     d="m1488.9 838.5s11.1 13 33.9 6 21.2-24 21.2-24l-5.7-1.8s-7.7 19-18.8 20-28.9-5.7-28.9-5.7z"
     fill="#be1e2d"
     transform="translate(0 -17.62)"
     id="path1162" />
  <path
     d="m1488.3 839.3s11.5 13.7 35 6.4 21.7-25.1 21.7-25.1l-5.9-1.9s-7.9 19.9-19.3 20.9-29.8-6.2-29.8-6.2z"
     fill="#be1e2d"
     transform="translate(0 -17.62)"
     id="path1164" />
  <path
     d="m1489.1 784.9s4.1-3.8 15.6-5.6l11.6-1.8s13.1-3 18.7 16c1.4 4.8 4.3 9.7 3.7 12.8s3.4 9.7 3 11.9-2 13-6.7 17-6.9 3.3-6.9 3.3-12.2 6.3-16.8 5.1c-4.8 3.6-8 .7-9.9 0s-12.8-4.9-16-15.4a93.55 93.55 0 0 1 -3.6-22.3c-.1 0 .8-14.3 7.3-21z"
     fill="#d9cab6"
     transform="translate(0 -17.62)"
     id="path1166" />
  <path
     d="m1496.5 781.3a2.65 2.65 0 0 1 2.3.2 9.91 9.91 0 0 1 1.7 1.1 20.65 20.65 0 0 1 2.8 3.1 2.36 2.36 0 0 1 .4 2.3c-.4 1.4-1.1 3.6-1.5 5.1-.6 2.3 5.2 8.3 2 10.4s-5 2.8-6.8 6.6c-2.7 5.7 1.2 6.7-3.4 16.8-12-.3-12.7-17.8-12.7-19.8v-.4c.2-1.9 2.4-18.1 7-21.5a30.9 30.9 0 0 1 8.2-3.9z"
     fill="#93724a"
     transform="translate(0 -17.62)"
     id="path1168" />
  <circle
     cx="1519"
     cy="779.58"
     fill="#404041"
     r="2.5"
     id="circle1170" />
  <ellipse
     cx="1518.77"
     cy="797.12"
     fill="#231f20"
     rx="2"
     ry="1.8"
     transform="matrix(.96174131 -.27395922 .27395922 .96174131 -160.29 429.05)"
     id="ellipse1172" />
  <circle
     cx="1497.9"
     cy="785.58"
     fill="#404041"
     r="2.5"
     id="circle1174" />
  <ellipse
     cx="1498.07"
     cy="803.02"
     fill="#231f20"
     rx="2"
     ry="1.8"
     transform="matrix(.96174131 -.27395922 .27395922 .96174131 -162.7 423.6)"
     id="ellipse1176" />
  <circle
     cx="1497.77"
     cy="802.19"
     fill="#fff"
     r=".7"
     transform="matrix(.96174131 -.27395922 .27395922 .96174131 -162.48 423.49)"
     id="circle1178" />
  <path
     d="m1521.5 818.8c-.3-.1-.5-.1-.8-.2l-.4-.2-.6-.2-1.2-.6-.6-.3-3.3-1.8a21.62 21.62 0 0 1 -1-4.4l-2 .6 1.3 4.5s-2.1 3.1-3.6 5.4c-2 2.7-3.3 1.4-3.3 1.4.5 1 1.2 1.2 1.8 1a4.74 4.74 0 0 0 1.9-1.2l.2-.2.1-.1.5-.5.1-.1c1.4-1.5 3-3.4 3.7-3.7s3 .3 5 .9l.4.1h.1a10.47 10.47 0 0 0 3 .5c.2 0 .3-.1.4-.1h.1a1.5 1.5 0 0 0 .8-1.8 2.23 2.23 0 0 1 -2.6 1z"
     fill="#404041"
     transform="translate(0 -17.62)"
     id="path1180" />
  <path
     d="m1513.9 813c-.2-1-.3-1.8-.3-1.8l-2 .6.5 1.7z"
     fill="#353535"
     opacity=".5"
     transform="translate(0 -17.62)"
     id="path1182" />
  <path
     d="m1506.1 808.3s.8-4.6 3.5-5.3 6.5 2.5 6.5 2.5 4.4 3.6 1.4 5.1-8.1 2.5-10 2.8-2.7-1.6-1.4-5.1z"
     fill="#404041"
     transform="translate(0 -17.62)"
     id="path1184" />
  <path
     d="m1507.5 813.3a54.27 54.27 0 0 0 8.8-2.3c-4.3-.8-7.8-4.1-9.2-5.7a18.15 18.15 0 0 0 -1.1 3c-1.2 3.5-.3 5.4 1.5 5z"
     fill="#353535"
     transform="translate(0 -17.62)"
     id="path1186" />
  <path
     d="m1493.2 795.9c-1.8-5.7-2.6-8.7-3.4-9.9l-.6-.7-.7.1a29.6 29.6 0 0 1 -5.2.7c-1.1-.2-3.9-1.4-6.4 1-8.5 8.1-6.9 7.5-9.6 13.8-1 2.2 2.9 3.5 3.3 5.3.6 2.4 1.7 3.4 2.5 3.8a.48.48 0 0 0 .6-.2.19.19 0 0 0 0-.3c-.6-2.3-2.1-9.2-1.4-9.6.9-.5 1.3 1.8 2.1 3.7s7.9 4 7.9 4 13.5-3.8 10.9-11.7z"
     fill="#93724a"
     transform="translate(0 -17.62)"
     id="path1188" />
  <path
     d="m1478.4 791a2.25 2.25 0 0 0 -1.8-.2 13.1 13.1 0 0 0 -4.3 9.2c.9-.5 1.3 1.8 2.1 3.7.7 1.7 6.1 3.5 7.5 3.9.2-5.3.1-15-3.5-16.6z"
     fill="#675339"
     transform="translate(0 -17.62)"
     id="path1190" />
  <path
     d="m1478.7 791.2-.3-.2a2.25 2.25 0 0 0 -1.8-.2 13.1 13.1 0 0 0 -4.3 9.2c.4-.2.7.1 1 .8a19.25 19.25 0 0 1 5.4-9.6z"
     fill="#59462e"
     opacity=".5"
     transform="translate(0 -17.62)"
     id="path1192" />
  <path
     d="m1519.8 788.4c-1.4-5.8-2.5-8.8-2.5-10.2l.3-.9.7-.3a26.16 26.16 0 0 0 4.8-2.2c.8-.7 2.5-3.3 6-2.5 11.5 2.4 9.8 2.8 15.5 6.7 2 1.4-.6 4.5 0 6.3.8 2.4.3 3.8-.1 4.5a.48.48 0 0 1 -.6.2c-.1-.1-.2-.1-.2-.2-.8-2.3-3-9-3.9-8.9s-.2 2.2.2 4.3-4.3 7.7-4.3 7.7-13.9 3.5-15.9-4.5z"
     fill="#a17b48"
     transform="translate(0 -17.62)"
     id="path1194" />
  <path
     d="m1529.9 776.4a3.33 3.33 0 0 1 1.4-1.2 13 13 0 0 1 8.5 5.5c-1 .1-.2 2.2.2 4.3.3 1.8-3.4 6.2-4.3 7.3-2.9-4.3-7.9-12.6-5.8-15.9z"
     fill="#675339"
     transform="translate(0 -17.62)"
     id="path1196" />
  <path
     d="m1531.4 775.3a2.36 2.36 0 0 0 -1.4 1.2l-.1.1c2.4.9 6.7 2.7 9.6 5.7-.1-.8-.1-1.4.4-1.4a13.47 13.47 0 0 0 -8.5-5.6z"
     fill="#59462e"
     opacity=".5"
     transform="translate(0 -17.62)"
     id="path1198" />
  <ellipse
     cx="1595.7"
     cy="935.28"
     fill="#231f20"
     opacity=".1"
     rx="112.2"
     ry="5.6"
     id="ellipse1200" />
  <path
     d="m1595.7 831.88h103.7v103.7h-103.7z"
     fill="#71b37c"
     id="path1202"
     style="fill:#e79c25;fill-opacity:1" />
  <path
     d="m1535.3 728.28h103.7v103.7h-103.7z"
     fill="#ec932f"
     id="path1204"
     style="fill:#f8eaab;fill-opacity:1" />
  <path
     d="m1492 831.58h103.7v103.7h-103.7z"
     fill="#5290e9"
     id="path1206"
     style="fill:#76b2b2;fill-opacity:1" />
  <path
     d="m1522.5 651.1h129.2a5.59 5.59 0 0 1 5.6 5.6v84a2.31 2.31 0 0 1 -2.2 2.3h-134.9a3.35 3.35 0 0 1 -3.4-3.3v-83.1a5.73 5.73 0 0 1 5.7-5.5z"
     fill="#6d6e71"
     transform="translate(0 -17.62)"
     id="path1208" />
  <path
     d="m1503.3 742.2h167.7c.1 0 .3.1.3.2v1.8c0 .1-.1.3-.2.3h-167.8c-.1 0-.3-.1-.3-.2v-1.8a.32.32 0 0 1 .3-.3z"
     fill="#58595b"
     transform="translate(0 -17.62)"
     id="path1210" />
  <path
     d="m1665.7 745.9h-157.2a10.76 10.76 0 0 1 -5.3-1.4h167.7a8.88 8.88 0 0 1 -5.2 1.4z"
     fill="#58595b"
     transform="translate(0 -17.62)"
     id="path1212" />
  <path
     d="m1585.4 690.2h4a4.74 4.74 0 0 1 4.8 4.8v4a4.74 4.74 0 0 1 -4.8 4.8h-4a4.74 4.74 0 0 1 -4.8-4.8v-4a4.8 4.8 0 0 1 4.8-4.8z"
     fill="#e6e7e8"
     transform="translate(0 -17.62)"
     id="path1214" />
</svg>
